Coordinates
version=1
nRows=14
nColumns=36
inDegrees=yes

Units are S.I. units (second, meters, Newtons, ...)
If the header above contains a line with 'inDegrees', this indicates whether rotational values are in degrees (yes) or radians (no).

endheader
time	pelvis_tilt	pelvis_list	pelvis_rotation	pelvis_tx	pelvis_ty	pelvis_tz	hip_flexion_r	hip_adduction_r	hip_rotation_r	knee_angle_r	knee_angle_r_beta	ankle_angle_r	subtalar_angle_r	mtp_angle_r	hip_flexion_l	hip_adduction_l	hip_rotation_l	knee_angle_l	knee_angle_l_beta	ankle_angle_l	subtalar_angle_l	mtp_angle_l	lumbar_extension	lumbar_bending	lumbar_rotation	arm_flex_r	arm_add_r	arm_rot_r	elbow_flex_r	pro_sup_r	arm_flex_l	arm_add_l	arm_rot_l	elbow_flex_l	pro_sup_l
      1.64166670	    -21.26367744	      0.11348139	      0.69020851	     -0.94018445	      1.23565209	     -0.01714201	     32.91357239	      0.08271825	      0.34439345	     18.11913018	      0.31623848	      6.67544167	    -23.72241887	     -7.49999987	     30.65869644	     -0.86465892	      8.66483684	     16.37487560	      0.28579549	      9.57262846	    -16.24360666	     -7.49999987	     -3.31505198	     -0.47510305	      1.35906043	      3.79821684	    -13.29349017	     -2.40235247	     49.05984951	     91.21905489	      1.77593090	    -10.69920051	     -6.40795189	     43.71810096	     99.28274999
      1.64583330	    -21.76406766	      0.18549512	      0.73206304	     -0.94014817	      1.23743607	     -0.01735955	     33.98952290	     -0.07905723	      0.21840941	     19.21654418	      0.33539197	      6.97071663	    -23.80426533	     -7.49999987	     31.73448818	     -0.75043233	      8.41294245	     17.38490708	      0.30342387	     10.22449996	    -15.82026994	     -7.49999987	     -3.12409607	     -0.52876242	      1.33448195	      4.07294584	    -13.49577022	     -2.35224117	     49.48955644	     89.80949117	      1.94986842	    -10.79276874	     -6.38297021	     44.12735791	     97.72921574
      1.65000000	    -22.31011018	      0.22135212	      0.79465872	     -0.94193275	      1.23755147	     -0.01735665	     35.13887605	     -0.22796184	      0.14643560	     20.25682411	      0.35354828	      7.02127270	    -24.20935057	     -7.49999987	     32.93665064	     -0.67920625	      8.08768430	     18.57212400	      0.32414471	     10.91192621	    -15.40357380	     -7.49999987	     -2.84390086	     -0.56576602	      1.33524061	      4.31499675	    -13.75552008	     -2.21700433	     49.82805822	     87.57314581	      2.07352160	    -10.91590576	     -6.30442010	     44.62662540	     95.45170051
      1.65416670	    -22.97499877	      0.24576540	      0.82546158	     -0.94429900	      1.23383581	     -0.01647245	     36.48456317	     -0.32908381	     -0.00239871	     21.37231381	      0.37301724	      7.19583518	    -24.63917183	     -7.49999987	     34.39487129	     -0.65664816	      7.63963372	     20.02494373	      0.34950120	     11.76764966	    -14.75526974	     -7.49999987	     -2.42882910	     -0.62717708	      1.31316898	      4.58573487	    -13.92028567	     -2.63130307	     50.23212214	     91.66600856	      2.14660351	    -10.96703060	     -7.03899121	     45.34877360	     99.24231810
      1.65833330	    -23.73377107	      0.23398607	      0.85735151	     -0.94626960	      1.22815612	     -0.01627653	     38.00186763	     -0.37881563	     -0.04211409	     22.56680987	      0.39386513	      7.16019573	    -25.46184269	     -7.49999987	     36.06594787	     -0.67745476	      7.13788647	     21.58803588	      0.37678231	     12.79815477	    -14.03915426	     -7.49999987	     -1.90550672	     -0.66095734	      1.33335392	      4.83524853	    -14.26486921	     -2.31700311	     50.72417092	     90.01465783	      2.23827146	    -11.23926555	     -6.66578386	     46.01635292	     96.95114973
      1.66250000	    -24.43121020	      0.23706558	      0.85905546	     -0.94866625	      1.22763925	     -0.01574391	     39.52030429	     -0.47461893	     -0.36496919	     23.92661388	      0.41759819	      7.31223460	    -25.91103143	     -7.49999987	     37.66054835	     -0.71864240	      6.69900360	     23.12220865	      0.40355867	     13.55999339	    -13.61787068	     -7.49999987	     -1.59877055	     -0.72058612	      1.33128713	      5.24004902	    -14.45241847	     -2.63148458	     51.19391437	     91.91956165	      2.40113399	    -11.26317235	     -7.39218459	     46.81042735	     98.79936755
      1.66666670	    -24.92381200	      0.21433887	      0.87616315	     -0.95008312	      1.22739941	     -0.01497935	     40.64681791	     -0.50375585	     -0.59474102	     24.91197684	      0.43479602	      7.44398464	    -26.23153781	     -7.49999987	     38.90682946	     -0.77556163	      6.44396775	     24.30579005	      0.42421606	     14.00268277	    -13.51868592	     -7.49999987	     -1.58120987	     -0.78096546	      1.36500708	      5.70785895	    -14.65174976	     -2.46725134	     51.61858579	     89.05353391	      2.74545263	    -11.43407844	     -7.22231567	     47.37887409	     95.55987068
      1.67083330	    -25.78523135	      0.20384531	      0.89555949	     -0.95157075	      1.21961967	     -0.01650332	     42.39056779	     -0.60574421	     -0.86889588	     26.30313518	      0.45907631	      7.70375579	    -26.62268603	     -7.49999987	     40.71105639	     -0.85996634	      5.88907416	     25.76002942	      0.44959733	     14.83435027	    -12.97538074	     -7.49999987	     -0.98188287	     -0.81843470	      1.41200790	      5.92551397	    -15.03706757	     -2.35152673	     52.23835066	     89.24515307	      2.87930751	    -11.61820809	     -7.16156110	     48.27119296	     95.50313954
      1.67500000	    -26.49430842	      0.14318473	      0.90276205	     -0.95327947	      1.21681501	     -0.01657799	     43.94937165	     -0.65854270	     -1.12753372	     27.68960188	      0.48327472	      7.74812110	    -27.21325623	     -7.49999987	     42.34834667	     -0.97929208	      5.46473293	     27.21146804	      0.47492971	     15.47126549	    -12.77383893	     -7.49999987	     -0.65966078	     -0.78895273	      1.44850095	      6.14561412	    -15.36176062	     -2.43681226	     52.87329877	     88.25056884	      3.04297345	    -11.70397424	     -7.29240973	     49.23580973	     94.45328748
      1.67916670	    -27.26336084	      0.06869167	      0.90861850	     -0.95509812	      1.21207345	     -0.01718397	     45.66589274	     -0.78121632	     -1.51458415	     29.23241258	      0.51020185	      8.25135605	    -27.33678557	     -7.49999987	     44.08558119	     -1.07654179	      5.11913965	     28.71335297	      0.50114255	     16.13217960	    -12.66331717	     -7.49999987	     -0.19116522	     -0.71103036	      1.52233848	      6.44902519	    -15.79032133	     -2.21821842	     53.46627738	     86.15773225	      3.26175799	    -11.79844129	     -7.15520234	     50.09313969	     91.88954991
      1.68333330	    -28.07289756	     -0.01277353	      0.91600249	     -0.95813717	      1.20910568	     -0.01892020	     47.44350260	     -0.91001414	     -1.77787909	     30.73271788	      0.53638712	      8.94726566	    -27.34313053	     -7.49999987	     45.96422697	     -1.16081820	      4.70697164	     30.37335866	      0.53011511	     17.03294176	    -11.89684186	     -7.49999987	      0.24936470	     -0.57315620	      1.43131599	      6.91077503	    -16.26494557	     -2.36364246	     53.96356058	     92.50786016	      3.43120177	    -11.84646510	     -7.66058947	     51.18079923	     97.30927059
      1.68750000	    -28.62595904	     -0.16755945	      0.94219154	     -0.95923386	      1.20740558	     -0.01666390	     48.73899512	     -0.90051867	     -2.02887306	     31.90414068	      0.55683230	      9.37412501	    -27.57113036	     -7.49999987	     47.45425332	     -1.33486948	      4.46603846	     31.81905171	      0.55534722	     17.58548280	    -11.82127765	     -7.49999987	      0.39351199	     -0.41095813	      1.54618583	      7.22233821	    -16.45248771	     -2.60706107	     54.58521365	     91.16598929	      3.82126498	    -11.81896081	     -7.87637859	     52.01776036	     95.85690020
      1.69166670	    -29.36538811	     -0.23238279	      0.94523484	     -0.96136472	      1.20356488	     -0.01637646	     50.28094443	     -0.99913716	     -2.32871859	     33.15768477	      0.57871077	      9.83780048	    -27.80337588	     -7.49999987	     49.10497149	     -1.46364635	      4.18936803	     33.24625206	      0.58025656	     18.23506654	    -11.36078765	     -7.49999987	      0.86831365	     -0.34985108	      1.62656303	      7.61183512	    -16.73121455	     -2.37107090	     54.93678229	     88.58936731	      4.19509820	    -11.94299550	     -7.71943705	     52.66270849	     92.82245479
      1.69583330	    -29.76571886	     -0.34603394	      0.94139822	     -0.96215100	      1.20456398	     -0.01733668	     51.16907782	     -1.02128120	     -2.53601830	     33.88615827	      0.59142503	      9.82558306	    -28.23584637	     -7.49999987	     50.19691123	     -1.60052598	      4.06195541	     34.33106000	      0.59919003	     18.67683046	    -10.99498527	     -7.49999987	      0.84342374	     -0.17569104	      1.72563746	      8.16842704	    -17.03131527	     -2.15667170	     55.07914504	     88.10433250	      4.71596308	    -11.98856239	     -7.62274310	     53.19509072	     92.02447115
